<svg xmlns="http://www.w3.org/2000/svg" xmlns:xlink="http://www.w3.org/1999/xlink" width="2000" zoomAndPan="magnify" viewBox="0 0 1500 1499.999933" height="2000" preserveAspectRatio="xMidYMid meet" version="1.0"><defs><g/></defs><g fill="#055c9d" fill-opacity="1"><g transform="translate(109.045172, 876.549049)"><g><path d="M 284.09375 -157.8125 C 285.238281 -148.0625 286.363281 -137.5 287.46875 -126.125 C 288.582031 -114.757812 288.828125 -103.34375 288.203125 -91.875 C 287.585938 -80.414062 285.273438 -69.734375 281.265625 -59.828125 C 277.253906 -49.929688 270.753906 -41.640625 261.765625 -34.953125 C 252.773438 -28.273438 240.445312 -24.019531 224.78125 -22.1875 C 202.320312 -19.550781 184.742188 -25.253906 172.046875 -39.296875 C 159.359375 -53.335938 150.226562 -73.367188 144.65625 -99.390625 L 142.953125 -99.203125 C 143.765625 -72.617188 139.566406 -51.023438 130.359375 -34.421875 C 121.148438 -17.816406 105.316406 -8.195312 82.859375 -5.5625 C 67.191406 -3.726562 54.210938 -5.019531 43.921875 -9.4375 C 33.628906 -13.863281 25.382812 -20.429688 19.1875 -29.140625 C 12.988281 -37.859375 8.265625 -47.71875 5.015625 -58.71875 C 1.773438 -69.726562 -0.617188 -80.890625 -2.171875 -92.203125 C -3.734375 -103.523438 -5.085938 -114.0625 -6.234375 -123.8125 C -7.296875 -132.894531 -8.066406 -140.507812 -8.546875 -146.65625 C -9.035156 -152.8125 -9.585938 -159.015625 -10.203125 -165.265625 C -10.828125 -171.523438 -11.679688 -179.3125 -12.765625 -188.625 C -14.117188 -200.1875 -13.113281 -209.785156 -9.75 -217.421875 C -6.394531 -225.066406 -1.5 -230.875 4.9375 -234.84375 C 11.382812 -238.820312 18.457031 -241.265625 26.15625 -242.171875 C 34.101562 -243.097656 41.984375 -242.582031 49.796875 -240.625 C 57.609375 -238.675781 64.363281 -234.46875 70.0625 -228 C 75.769531 -221.53125 79.359375 -212.054688 80.828125 -199.578125 L 90.265625 -118.90625 C 90.796875 -114.363281 91.640625 -111.585938 92.796875 -110.578125 C 93.960938 -109.566406 95.222656 -109.140625 96.578125 -109.296875 C 98.171875 -109.484375 99.460938 -110.207031 100.453125 -111.46875 C 101.453125 -112.738281 101.6875 -115.644531 101.15625 -120.1875 C 101.101562 -120.644531 101.003906 -121.492188 100.859375 -122.734375 C 100.710938 -123.984375 100.390625 -127.222656 99.890625 -132.453125 C 99.398438 -137.679688 98.460938 -146.195312 97.078125 -158 C 95.691406 -169.800781 93.738281 -186.476562 91.21875 -208.03125 C 90.769531 -211.882812 90.609375 -216.234375 90.734375 -221.078125 C 90.859375 -225.929688 91.859375 -230.648438 93.734375 -235.234375 C 95.609375 -239.828125 99.050781 -243.796875 104.0625 -247.140625 C 109.082031 -250.492188 116.359375 -252.726562 125.890625 -253.84375 C 135.203125 -254.9375 142.6875 -254.378906 148.34375 -252.171875 C 154 -249.960938 158.265625 -246.894531 161.140625 -242.96875 C 164.023438 -239.039062 166.085938 -234.734375 167.328125 -230.046875 C 168.566406 -225.367188 169.410156 -221.101562 169.859375 -217.25 C 172.378906 -195.695312 174.332031 -179.019531 175.71875 -167.21875 C 177.101562 -155.414062 178.15625 -146.910156 178.875 -141.703125 C 179.59375 -136.492188 180.023438 -133.265625 180.171875 -132.015625 C 180.316406 -130.773438 180.414062 -129.925781 180.46875 -129.46875 C 181 -124.925781 181.898438 -122.15625 183.171875 -121.15625 C 184.441406 -120.164062 185.867188 -119.757812 187.453125 -119.9375 C 188.816406 -120.101562 189.941406 -120.8125 190.828125 -122.0625 C 191.710938 -123.3125 191.890625 -126.207031 191.359375 -130.75 L 181.921875 -211.421875 C 180.453125 -223.898438 181.519531 -233.914062 185.125 -241.46875 C 188.726562 -249.019531 193.9375 -254.628906 200.75 -258.296875 C 207.570312 -261.972656 214.953125 -264.273438 222.890625 -265.203125 C 230.609375 -266.109375 238.222656 -265.390625 245.734375 -263.046875 C 253.253906 -260.703125 259.757812 -256.226562 265.25 -249.625 C 270.75 -243.019531 274.175781 -233.9375 275.53125 -222.375 C 276.613281 -213.0625 277.578125 -205.289062 278.421875 -199.0625 C 279.273438 -192.84375 280.164062 -186.679688 281.09375 -180.578125 C 282.03125 -174.484375 283.03125 -166.894531 284.09375 -157.8125 Z M 194.78125 -237.078125 C 193.976562 -236.054688 193.863281 -235.0625 194.4375 -234.09375 C 195.007812 -233.125 195.75 -232.691406 196.65625 -232.796875 C 197.34375 -232.878906 197.90625 -233.0625 198.34375 -233.34375 C 202.613281 -237.988281 207.144531 -241.453125 211.9375 -243.734375 C 216.738281 -246.015625 221.75 -247.457031 226.96875 -248.0625 C 234 -248.882812 241.160156 -248.578125 248.453125 -247.140625 L 249.9375 -252.15625 C 241.03125 -253.632812 233.0625 -253.960938 226.03125 -253.140625 C 220.34375 -252.472656 214.882812 -250.914062 209.65625 -248.46875 C 204.4375 -246.019531 199.476562 -242.222656 194.78125 -237.078125 Z M -1.546875 -210.625 C -2.335938 -209.625 -2.445312 -208.632812 -1.875 -207.65625 C -1.3125 -206.6875 -0.578125 -206.253906 0.328125 -206.359375 C 1.015625 -206.441406 1.570312 -206.625 2 -206.90625 C 6.28125 -211.539062 10.816406 -215.003906 15.609375 -217.296875 C 20.398438 -219.585938 25.410156 -221.035156 30.640625 -221.640625 C 37.671875 -222.460938 44.835938 -222.148438 52.140625 -220.703125 L 53.609375 -225.71875 C 44.703125 -227.207031 36.734375 -227.539062 29.703125 -226.71875 C 24.023438 -226.050781 18.570312 -224.488281 13.34375 -222.03125 C 8.113281 -219.582031 3.148438 -215.78125 -1.546875 -210.625 Z M 100.75 -223.984375 C 99.945312 -222.960938 99.820312 -222.023438 100.375 -221.171875 C 100.9375 -220.328125 101.675781 -219.957031 102.59375 -220.0625 C 103.269531 -220.132812 103.707031 -220.300781 103.90625 -220.5625 C 107.757812 -224.925781 111.8125 -228.101562 116.0625 -230.09375 C 120.3125 -232.09375 124.707031 -233.359375 129.25 -233.890625 C 135.375 -234.609375 141.734375 -234.316406 148.328125 -233.015625 L 149.546875 -237.296875 C 145.796875 -237.992188 142.125 -238.421875 138.53125 -238.578125 C 134.945312 -238.742188 131.570312 -238.640625 128.40625 -238.265625 C 123.414062 -237.679688 118.578125 -236.253906 113.890625 -233.984375 C 109.210938 -231.710938 104.832031 -228.378906 100.75 -223.984375 Z M 56.890625 -29.765625 C 55.984375 -29.660156 55.300781 -29.117188 54.84375 -28.140625 C 54.382812 -27.171875 54.671875 -26.175781 55.703125 -25.15625 C 63.210938 -21.90625 70.941406 -20.742188 78.890625 -21.671875 C 82.066406 -22.046875 85.195312 -22.8125 88.28125 -23.96875 C 91.363281 -25.132812 94.054688 -26.660156 96.359375 -28.546875 C 97.367188 -29.804688 97.535156 -30.859375 96.859375 -31.703125 C 96.179688 -32.546875 95.28125 -32.898438 94.15625 -32.765625 C 93.46875 -32.691406 93.023438 -32.523438 92.828125 -32.265625 C 90.953125 -30.660156 88.738281 -29.421875 86.1875 -28.546875 C 83.644531 -27.671875 81.015625 -27.078125 78.296875 -26.765625 C 70.804688 -25.890625 64.265625 -26.734375 58.671875 -29.296875 C 57.710938 -29.640625 57.117188 -29.796875 56.890625 -29.765625 Z M 192.21875 -102.890625 C 194.707031 -103.179688 197.003906 -104.140625 199.109375 -105.765625 C 200.398438 -106.617188 200.800781 -107.644531 200.3125 -108.84375 C 199.820312 -110.050781 199.007812 -110.585938 197.875 -110.453125 C 197.425781 -110.398438 196.988281 -110.234375 196.5625 -109.953125 C 194.851562 -108.835938 193.320312 -108.195312 191.96875 -108.03125 C 189.226562 -107.71875 186.566406 -108.269531 183.984375 -109.6875 C 181.410156 -111.113281 179.625 -113.148438 178.625 -115.796875 C 178.226562 -117.128906 177.238281 -117.703125 175.65625 -117.515625 C 174.0625 -117.328125 173.5 -116.226562 173.96875 -114.21875 C 175.3125 -110.695312 177.78125 -107.820312 181.375 -105.59375 C 184.96875 -103.363281 188.582031 -102.460938 192.21875 -102.890625 Z M 84.734375 -110.328125 C 83.140625 -110.140625 82.578125 -109.035156 83.046875 -107.015625 C 84.117188 -103.691406 86.34375 -100.847656 89.71875 -98.484375 C 93.101562 -96.117188 96.382812 -95.125 99.5625 -95.5 C 102.738281 -95.863281 105.28125 -97.773438 107.1875 -101.234375 C 107.5 -102.410156 107.382812 -103.367188 106.84375 -104.109375 C 106.300781 -104.859375 105.578125 -105.179688 104.671875 -105.078125 C 103.984375 -104.992188 103.335938 -104.566406 102.734375 -103.796875 C 101.585938 -101.828125 100.21875 -100.75 98.625 -100.5625 C 96.363281 -100.300781 94.144531 -101.078125 91.96875 -102.890625 C 89.800781 -104.703125 88.375 -106.609375 87.6875 -108.609375 C 87.300781 -109.941406 86.316406 -110.515625 84.734375 -110.328125 Z M 206.671875 -44.203125 C 205.765625 -44.097656 205.144531 -43.507812 204.8125 -42.4375 C 204.476562 -41.375 204.816406 -40.4375 205.828125 -39.625 C 208.429688 -39.007812 211.023438 -38.453125 213.609375 -37.953125 C 216.191406 -37.453125 218.625 -37.332031 220.90625 -37.59375 C 225.664062 -38.15625 229.632812 -40.578125 232.8125 -44.859375 C 233.132812 -46.046875 233.019531 -47.007812 232.46875 -47.75 C 231.925781 -48.5 231.195312 -48.816406 230.28125 -48.703125 C 229.613281 -48.628906 228.976562 -48.207031 228.375 -47.4375 C 225.976562 -44.40625 223.078125 -42.6875 219.671875 -42.28125 C 218.078125 -42.09375 216.28125 -42.164062 214.28125 -42.5 C 212.289062 -42.84375 210.222656 -43.351562 208.078125 -44.03125 C 207.816406 -44.226562 207.347656 -44.285156 206.671875 -44.203125 Z M 203.140625 -115.5625 C 201.785156 -115.394531 201.488281 -114.492188 202.25 -112.859375 C 203.019531 -111.234375 203.859375 -110.472656 204.765625 -110.578125 C 205.222656 -110.628906 205.738281 -111.148438 206.3125 -112.140625 C 206.914062 -112.898438 206.679688 -113.910156 205.609375 -115.171875 C 204.878906 -115.535156 204.054688 -115.664062 203.140625 -115.5625 Z M 58.921875 -218.75 L 58.96875 -218.40625 C 59.363281 -216.84375 60.359375 -216.15625 61.953125 -216.34375 C 63.304688 -216.507812 64.019531 -217.28125 64.09375 -218.65625 C 63.851562 -220.707031 62.941406 -221.640625 61.359375 -221.453125 C 59.765625 -221.265625 58.953125 -220.363281 58.921875 -218.75 Z M 255.234375 -245.1875 L 255.28125 -244.84375 C 255.695312 -243.28125 256.695312 -242.585938 258.28125 -242.765625 C 259.644531 -242.929688 260.363281 -243.707031 260.4375 -245.09375 C 260.195312 -247.132812 259.28125 -248.0625 257.6875 -247.875 C 256.101562 -247.695312 255.285156 -246.800781 255.234375 -245.1875 Z M 154.40625 -231.296875 L 154.4375 -230.953125 C 155.070312 -229.429688 155.960938 -228.734375 157.109375 -228.859375 C 158.234375 -228.992188 158.832031 -229.753906 158.90625 -231.140625 C 158.6875 -232.960938 157.898438 -233.789062 156.546875 -233.625 C 155.398438 -233.5 154.6875 -232.722656 154.40625 -231.296875 Z M 154.40625 -231.296875 "/></g></g></g><g fill="#055c9d" fill-opacity="1"><g transform="translate(413.055138, 843.227554)"><g><path d="M 45.578125 -241 C 57.890625 -241.8125 67.695312 -240.628906 75 -237.453125 C 82.3125 -234.273438 87.8125 -229.941406 91.5 -224.453125 C 95.1875 -218.960938 97.625 -213.171875 98.8125 -207.078125 C 100.007812 -200.984375 100.773438 -195.429688 101.109375 -190.421875 L 109.875 -57.390625 C 110.207031 -52.378906 110.179688 -46.765625 109.796875 -40.546875 C 109.410156 -34.335938 107.75 -28.273438 104.8125 -22.359375 C 101.882812 -16.453125 96.945312 -11.4375 90 -7.3125 C 83.0625 -3.195312 73.328125 -0.722656 60.796875 0.109375 C 48.484375 0.921875 38.671875 -0.257812 31.359375 -3.4375 C 24.054688 -6.625 18.5625 -10.957031 14.875 -16.4375 C 11.195312 -21.914062 8.753906 -27.707031 7.546875 -33.8125 C 6.347656 -39.914062 5.582031 -45.472656 5.25 -50.484375 L -3.515625 -183.515625 C -3.847656 -188.523438 -3.816406 -194.128906 -3.421875 -200.328125 C -3.023438 -206.535156 -1.363281 -212.597656 1.5625 -218.515625 C 4.488281 -224.441406 9.421875 -229.460938 16.359375 -233.578125 C 23.304688 -237.703125 33.046875 -240.175781 45.578125 -241 Z M 62.078125 -16.78125 C 68.015625 -17.175781 73.648438 -18.519531 78.984375 -20.8125 C 84.328125 -23.113281 89.367188 -26.601562 94.109375 -31.28125 C 95.160156 -32.488281 95.429688 -33.53125 94.921875 -34.40625 C 94.410156 -35.289062 93.582031 -35.695312 92.4375 -35.625 C 91.75 -35.582031 91.1875 -35.429688 90.75 -35.171875 C 86.226562 -30.753906 81.515625 -27.523438 76.609375 -25.484375 C 71.710938 -23.441406 66.644531 -22.25 61.40625 -21.90625 C 54.34375 -21.4375 47.203125 -22.113281 39.984375 -23.9375 L 38.25 -19.015625 C 47.082031 -17.066406 55.023438 -16.320312 62.078125 -16.78125 Z M 71.140625 -223.125 C 62.328125 -225.050781 54.382812 -225.78125 47.3125 -225.3125 C 41.613281 -224.9375 36.085938 -223.65625 30.734375 -221.46875 C 25.390625 -219.289062 20.242188 -215.75 15.296875 -210.84375 C 14.429688 -209.875 14.257812 -208.890625 14.78125 -207.890625 C 15.3125 -206.898438 16.035156 -206.429688 16.953125 -206.484375 C 17.640625 -206.535156 18.207031 -206.691406 18.65625 -206.953125 C 23.164062 -211.367188 27.867188 -214.59375 32.765625 -216.625 C 37.660156 -218.664062 42.734375 -219.863281 47.984375 -220.21875 C 55.054688 -220.675781 62.195312 -220 69.40625 -218.1875 Z M 28.125 -26.59375 C 28.257812 -24.539062 29.128906 -23.566406 30.734375 -23.671875 C 32.316406 -23.773438 33.171875 -24.628906 33.296875 -26.234375 L 33.28125 -26.578125 C 32.9375 -28.160156 31.972656 -28.898438 30.390625 -28.796875 C 29.242188 -28.710938 28.488281 -27.976562 28.125 -26.59375 Z M 76.09375 -215.875 L 76.125 -215.53125 C 76.445312 -213.957031 77.410156 -213.222656 79.015625 -213.328125 C 80.378906 -213.421875 81.128906 -214.15625 81.265625 -215.53125 C 81.128906 -217.582031 80.265625 -218.554688 78.671875 -218.453125 C 77.066406 -218.347656 76.207031 -217.488281 76.09375 -215.875 Z M 76.09375 -215.875 "/></g></g></g><g fill="#055c9d" fill-opacity="1"><g transform="translate(532.964007, 834.562876)"><g><path d="M 154.078125 -237.140625 C 158.890625 -237.046875 163.832031 -236.039062 168.90625 -234.125 C 173.988281 -232.207031 178.257812 -228.664062 181.71875 -223.5 C 185.175781 -218.34375 187.054688 -210.515625 187.359375 -200.015625 C 187.691406 -188.140625 186.222656 -179.410156 182.953125 -173.828125 C 179.679688 -168.253906 175.609375 -164.710938 170.734375 -163.203125 C 165.867188 -161.703125 160.921875 -160.878906 155.890625 -160.734375 L 105.53125 -159.3125 L 105.8125 -149.71875 L 146.234375 -150.859375 C 150.347656 -150.972656 154.535156 -150.289062 158.796875 -148.8125 C 163.066406 -147.332031 166.75 -144.410156 169.84375 -140.046875 C 172.945312 -135.679688 174.613281 -129.382812 174.84375 -121.15625 C 175.070312 -113.15625 173.765625 -106.890625 170.921875 -102.359375 C 168.078125 -97.828125 164.5625 -94.703125 160.375 -92.984375 C 156.195312 -91.265625 152.050781 -90.347656 147.9375 -90.234375 L 90.40625 -88.609375 L 90.6875 -78.671875 L 158.5 -80.59375 C 163.3125 -80.5 168.253906 -79.492188 173.328125 -77.578125 C 178.410156 -75.660156 182.679688 -72.066406 186.140625 -66.796875 C 189.609375 -61.523438 191.492188 -53.640625 191.796875 -43.140625 C 192.085938 -32.859375 190.648438 -25.046875 187.484375 -19.703125 C 184.316406 -14.359375 180.25 -10.644531 175.28125 -8.5625 C 170.320312 -6.476562 165.445312 -5.140625 160.65625 -4.546875 L 48.984375 -1.390625 C 40.304688 -1.140625 33.347656 -2.65625 28.109375 -5.9375 C 22.867188 -9.21875 18.984375 -13.21875 16.453125 -17.9375 C 13.921875 -22.664062 12.25 -27.359375 11.4375 -32.015625 C 10.625 -36.679688 10.179688 -40.390625 10.109375 -43.140625 L 5.953125 -190.078125 C 5.867188 -192.828125 6.101562 -196.550781 6.65625 -201.25 C 7.207031 -205.957031 8.613281 -210.738281 10.875 -215.59375 C 13.132812 -220.457031 16.785156 -224.675781 21.828125 -228.25 C 26.867188 -231.820312 33.726562 -233.734375 42.40625 -233.984375 Z M 36.546875 -41.484375 C 34.941406 -41.441406 34.28125 -40.394531 34.5625 -38.34375 C 35.070312 -36.757812 35.519531 -35.113281 35.90625 -33.40625 C 36.300781 -31.707031 36.972656 -30.070312 37.921875 -28.5 C 41.273438 -23.332031 47.484375 -20.078125 56.546875 -18.734375 C 65.609375 -17.398438 75.050781 -16.867188 84.875 -17.140625 C 92.40625 -17.359375 99.59375 -17.789062 106.4375 -18.4375 C 113.28125 -19.09375 118.53125 -19.472656 122.1875 -19.578125 C 124 -20.085938 124.769531 -21.078125 124.5 -22.546875 C 124.226562 -24.023438 123.179688 -24.738281 121.359375 -24.6875 C 117.242188 -24.5625 111.878906 -24.117188 105.265625 -23.359375 C 98.660156 -22.609375 91.707031 -22.128906 84.40625 -21.921875 C 75.5 -21.671875 67.023438 -22.226562 58.984375 -23.59375 C 50.953125 -24.96875 45.273438 -27.78125 41.953125 -32.03125 C 41.234375 -33.164062 40.738281 -34.410156 40.46875 -35.765625 C 40.207031 -37.128906 39.832031 -38.375 39.34375 -39.5 C 39.070312 -40.875 38.140625 -41.535156 36.546875 -41.484375 Z M 29.40625 -196.578125 C 29.238281 -194.523438 29.957031 -193.519531 31.5625 -193.5625 C 33.15625 -193.601562 34.046875 -194.3125 34.234375 -195.6875 C 34.660156 -196.84375 34.96875 -198.164062 35.15625 -199.65625 C 35.34375 -201.144531 35.765625 -202.359375 36.421875 -203.296875 C 39.492188 -207.953125 45.003906 -211.132812 52.953125 -212.84375 C 60.898438 -214.550781 69.328125 -215.53125 78.234375 -215.78125 C 85.535156 -215.988281 92.503906 -215.898438 99.140625 -215.515625 C 105.785156 -215.128906 111.164062 -214.992188 115.28125 -215.109375 C 117.101562 -215.160156 118.109375 -215.929688 118.296875 -217.421875 C 118.484375 -218.921875 117.660156 -219.875 115.828125 -220.28125 C 112.171875 -220.175781 106.90625 -220.253906 100.03125 -220.515625 C 93.164062 -220.785156 85.96875 -220.8125 78.4375 -220.59375 C 68.613281 -220.3125 59.21875 -219.242188 50.25 -217.390625 C 41.28125 -215.535156 35.265625 -211.941406 32.203125 -206.609375 C 31.335938 -204.984375 30.753906 -203.363281 30.453125 -201.75 C 30.160156 -200.144531 29.8125 -198.421875 29.40625 -196.578125 Z M 134.359375 -218.734375 C 133.441406 -218.710938 132.722656 -217.835938 132.203125 -216.109375 C 131.691406 -214.378906 132.117188 -213.53125 133.484375 -213.5625 C 134.398438 -213.59375 135.191406 -213.847656 135.859375 -214.328125 C 136.742188 -215.722656 136.832031 -216.753906 136.125 -217.421875 C 135.40625 -218.304688 134.816406 -218.742188 134.359375 -218.734375 Z M 141.859375 -26.640625 C 141.160156 -27.066406 140.351562 -27.265625 139.4375 -27.234375 C 138.070312 -27.203125 137.695312 -26.335938 138.3125 -24.640625 C 138.925781 -22.953125 139.691406 -22.117188 140.609375 -22.140625 C 141.066406 -22.160156 141.628906 -22.628906 142.296875 -23.546875 C 142.953125 -24.253906 142.804688 -25.285156 141.859375 -26.640625 Z M 141.859375 -26.640625 "/></g></g></g><g fill="#055c9d" fill-opacity="1"><g transform="translate(726.416208, 828.579031)"><g><path d="M 233.40625 -109.390625 L 233.390625 -108.703125 C 232.898438 -86.554688 229.363281 -68.46875 222.78125 -54.4375 C 216.195312 -40.40625 207.617188 -29.453125 197.046875 -21.578125 C 186.472656 -13.703125 174.976562 -8.066406 162.5625 -4.671875 C 150.15625 -1.285156 137.773438 0.722656 125.421875 1.359375 C 113.066406 2.003906 101.867188 2.21875 91.828125 2 L 52.421875 1.140625 C 41.679688 0.910156 33.328125 -1.15625 27.359375 -5.0625 C 21.390625 -8.96875 17.097656 -13.800781 14.484375 -19.5625 C 11.867188 -25.332031 10.285156 -31.363281 9.734375 -37.65625 C 9.179688 -43.957031 8.957031 -49.503906 9.0625 -54.296875 L 11.765625 -178.328125 C 11.867188 -183.117188 12.332031 -188.585938 13.15625 -194.734375 C 13.976562 -200.890625 15.820312 -206.796875 18.6875 -212.453125 C 21.550781 -218.109375 26.050781 -222.75 32.1875 -226.375 C 38.320312 -230.007812 46.757812 -231.710938 57.5 -231.484375 L 86.96875 -230.84375 C 94.957031 -230.664062 104.140625 -230.234375 114.515625 -229.546875 C 124.898438 -228.859375 135.609375 -227.363281 146.640625 -225.0625 C 157.679688 -222.769531 168.457031 -219.054688 178.96875 -213.921875 C 189.476562 -208.785156 198.863281 -201.835938 207.125 -193.078125 C 215.394531 -184.328125 221.945312 -173.101562 226.78125 -159.40625 C 231.625 -145.707031 233.832031 -129.035156 233.40625 -109.390625 Z M 106.03125 -131.03125 L 105.375 -100.875 C 105.332031 -99.039062 105.796875 -96.800781 106.765625 -94.15625 C 107.734375 -91.519531 110.726562 -90.144531 115.75 -90.03125 C 120.320312 -89.9375 123.09375 -91.1875 124.0625 -93.78125 C 125.039062 -96.382812 125.550781 -98.601562 125.59375 -100.4375 L 126.25 -130.59375 C 126.289062 -132.414062 125.820312 -134.648438 124.84375 -137.296875 C 123.875 -139.941406 120.878906 -141.320312 115.859375 -141.4375 C 111.515625 -141.53125 108.800781 -140.273438 107.71875 -137.671875 C 106.632812 -135.066406 106.070312 -132.851562 106.03125 -131.03125 Z M 36.3125 -46.171875 C 34.9375 -46.203125 34.003906 -45.421875 33.515625 -43.828125 C 34.953125 -36.472656 37.859375 -30.925781 42.234375 -27.1875 C 46.609375 -23.445312 51.8125 -20.992188 57.84375 -19.828125 C 63.875 -18.660156 70.085938 -18.007812 76.484375 -17.875 C 79.222656 -17.8125 82.019531 -17.804688 84.875 -17.859375 C 87.738281 -17.910156 90.429688 -17.910156 92.953125 -17.859375 C 94.773438 -17.816406 95.816406 -18.535156 96.078125 -20.015625 C 96.335938 -21.492188 95.5625 -22.484375 93.75 -22.984375 C 91.226562 -23.035156 88.535156 -23.035156 85.671875 -22.984375 C 82.816406 -22.929688 79.789062 -22.941406 76.59375 -23.015625 C 71.113281 -23.128906 65.640625 -23.703125 60.171875 -24.734375 C 54.710938 -25.773438 50.070312 -27.820312 46.25 -30.875 C 42.4375 -33.925781 39.910156 -38.429688 38.671875 -44.390625 C 38.472656 -45.546875 37.6875 -46.140625 36.3125 -46.171875 Z M 35.03125 -191.1875 C 35.445312 -189.570312 36.332031 -188.75 37.6875 -188.71875 C 39.0625 -188.6875 39.878906 -189.242188 40.140625 -190.390625 C 41.640625 -196.523438 44.363281 -200.976562 48.3125 -203.75 C 52.257812 -206.53125 56.984375 -208.316406 62.484375 -209.109375 C 67.992188 -209.898438 73.488281 -210.234375 78.96875 -210.109375 C 82.164062 -210.046875 85.191406 -209.925781 88.046875 -209.75 C 90.898438 -209.570312 93.582031 -209.453125 96.09375 -209.390625 C 97.925781 -209.804688 98.742188 -210.757812 98.546875 -212.25 C 98.347656 -213.738281 97.335938 -214.503906 95.515625 -214.546875 C 93.003906 -214.609375 90.320312 -214.722656 87.46875 -214.890625 C 84.613281 -215.066406 81.816406 -215.1875 79.078125 -215.25 C 72.679688 -215.394531 66.441406 -215.019531 60.359375 -214.125 C 54.285156 -213.226562 48.984375 -211.054688 44.453125 -207.609375 C 39.921875 -204.171875 36.78125 -198.695312 35.03125 -191.1875 Z M 111.15625 -83.609375 L 108.421875 -83.671875 C 106.585938 -83.710938 104.648438 -83.984375 102.609375 -84.484375 C 100.566406 -84.992188 99.34375 -86.394531 98.9375 -88.6875 C 98.738281 -90.0625 97.84375 -90.765625 96.25 -90.796875 C 94.65625 -90.835938 93.945312 -89.820312 94.125 -87.75 C 94.9375 -83.382812 97.160156 -80.765625 100.796875 -79.890625 C 104.429688 -79.015625 108.078125 -78.535156 111.734375 -78.453125 C 113.578125 -78.878906 114.398438 -79.835938 114.203125 -81.328125 C 114.003906 -82.816406 112.988281 -83.578125 111.15625 -83.609375 Z M 132.5 -134.90625 C 132.925781 -133.289062 133.828125 -132.46875 135.203125 -132.4375 C 136.796875 -132.40625 137.613281 -133.304688 137.65625 -135.140625 C 137.488281 -138.117188 136.75 -141.046875 135.4375 -143.921875 C 134.132812 -146.804688 131.890625 -148.628906 128.703125 -149.390625 C 127.109375 -149.421875 126.179688 -148.753906 125.921875 -147.390625 C 125.671875 -146.023438 126.222656 -145.097656 127.578125 -144.609375 C 130.085938 -144.097656 131.539062 -142.632812 131.9375 -140.21875 C 132.34375 -137.8125 132.53125 -136.039062 132.5 -134.90625 Z M 104.015625 -23.796875 C 103.109375 -23.804688 102.414062 -23.359375 101.9375 -22.453125 C 101.46875 -21.546875 101.675781 -20.515625 102.5625 -19.359375 C 103.007812 -18.898438 103.234375 -18.671875 103.234375 -18.671875 C 103.460938 -18.429688 103.914062 -18.304688 104.59375 -18.296875 C 105.738281 -18.265625 106.609375 -18.753906 107.203125 -19.765625 C 107.796875 -20.785156 107.53125 -21.765625 106.40625 -22.703125 C 106.40625 -22.703125 106.179688 -22.9375 105.734375 -23.40625 C 105.273438 -23.644531 104.703125 -23.773438 104.015625 -23.796875 Z M 105.0625 -212.625 C 104.125 -211.738281 103.875 -210.773438 104.3125 -209.734375 C 104.75 -208.691406 105.425781 -208.160156 106.34375 -208.140625 C 107.03125 -208.128906 107.597656 -208.234375 108.046875 -208.453125 C 108.515625 -208.898438 108.75 -209.125 108.75 -209.125 C 109.914062 -210.238281 110.222656 -211.257812 109.671875 -212.1875 C 109.117188 -213.113281 108.273438 -213.585938 107.140625 -213.609375 C 106.453125 -213.617188 105.992188 -213.515625 105.765625 -213.296875 C 105.765625 -213.296875 105.53125 -213.070312 105.0625 -212.625 Z M 105.0625 -212.625 "/></g></g></g><g fill="#055c9d" fill-opacity="1"><g transform="translate(952.435719, 833.813345)"><g><path d="M 177.015625 -220.53125 C 181.785156 -219.957031 186.601562 -218.460938 191.46875 -216.046875 C 196.34375 -213.640625 200.238281 -209.695312 203.15625 -204.21875 C 206.082031 -198.738281 207.171875 -190.757812 206.421875 -180.28125 C 205.566406 -168.4375 203.234375 -159.898438 199.421875 -154.671875 C 195.609375 -149.441406 191.203125 -146.320312 186.203125 -145.3125 C 181.203125 -144.300781 176.191406 -143.976562 171.171875 -144.34375 L 120.9375 -147.953125 L 120.25 -138.390625 L 160.578125 -135.484375 C 164.679688 -135.191406 168.78125 -134.09375 172.875 -132.1875 C 176.976562 -130.289062 180.351562 -127.015625 183 -122.359375 C 185.644531 -117.710938 186.671875 -111.285156 186.078125 -103.078125 C 185.503906 -95.097656 183.570312 -88.992188 180.28125 -84.765625 C 177 -80.535156 173.191406 -77.773438 168.859375 -76.484375 C 164.535156 -75.191406 160.320312 -74.691406 156.21875 -74.984375 L 98.8125 -79.125 L 98.109375 -69.203125 L 165.765625 -64.328125 C 170.535156 -63.753906 175.351562 -62.257812 180.21875 -59.84375 C 185.09375 -57.4375 188.988281 -53.4375 191.90625 -47.84375 C 194.820312 -42.25 195.898438 -34.21875 195.140625 -23.75 C 194.398438 -13.488281 192.191406 -5.859375 188.515625 -0.859375 C 184.835938 4.140625 180.421875 7.425781 175.265625 9 C 170.109375 10.582031 165.117188 11.429688 160.296875 11.546875 L 48.875 3.515625 C 40.21875 2.890625 33.445312 0.6875 28.5625 -3.09375 C 23.6875 -6.875 20.222656 -11.242188 18.171875 -16.203125 C 16.117188 -21.171875 14.921875 -26.015625 14.578125 -30.734375 C 14.234375 -35.453125 14.160156 -39.179688 14.359375 -41.921875 L 24.921875 -188.53125 C 25.117188 -191.28125 25.722656 -194.960938 26.734375 -199.578125 C 27.753906 -204.203125 29.632812 -208.816406 32.375 -213.421875 C 35.113281 -218.035156 39.171875 -221.867188 44.546875 -224.921875 C 49.921875 -227.972656 56.9375 -229.1875 65.59375 -228.5625 Z M 40.515625 -37.625 C 38.910156 -37.738281 38.148438 -36.765625 38.234375 -34.703125 C 38.578125 -33.066406 38.859375 -31.378906 39.078125 -29.640625 C 39.296875 -27.910156 39.800781 -26.21875 40.59375 -24.5625 C 43.40625 -19.09375 49.253906 -15.238281 58.140625 -13 C 67.023438 -10.757812 76.367188 -9.285156 86.171875 -8.578125 C 93.691406 -8.035156 100.882812 -7.742188 107.75 -7.703125 C 114.625 -7.660156 119.882812 -7.507812 123.53125 -7.25 C 125.375 -7.570312 126.234375 -8.484375 126.109375 -9.984375 C 125.992188 -11.484375 125.03125 -12.296875 123.21875 -12.421875 C 119.113281 -12.722656 113.734375 -12.828125 107.078125 -12.734375 C 100.429688 -12.640625 93.460938 -12.851562 86.171875 -13.375 C 77.285156 -14.019531 68.910156 -15.425781 61.046875 -17.59375 C 53.191406 -19.757812 47.828125 -23.125 44.953125 -27.6875 C 44.347656 -28.882812 43.976562 -30.171875 43.84375 -31.546875 C 43.71875 -32.929688 43.460938 -34.207031 43.078125 -35.375 C 42.953125 -36.757812 42.097656 -37.507812 40.515625 -37.625 Z M 48.90625 -192.65625 C 48.53125 -190.625 49.144531 -189.550781 50.75 -189.4375 C 52.332031 -189.320312 53.289062 -189.9375 53.625 -191.28125 C 54.164062 -192.382812 54.601562 -193.671875 54.9375 -195.140625 C 55.269531 -196.609375 55.8125 -197.769531 56.5625 -198.625 C 60.082031 -202.957031 65.878906 -205.578125 73.953125 -206.484375 C 82.035156 -207.398438 90.519531 -207.539062 99.40625 -206.90625 C 106.695312 -206.375 113.625 -205.582031 120.1875 -204.53125 C 126.757812 -203.488281 132.097656 -202.816406 136.203125 -202.515625 C 138.015625 -202.390625 139.085938 -203.054688 139.421875 -204.515625 C 139.765625 -205.984375 139.046875 -207.007812 137.265625 -207.59375 C 133.617188 -207.851562 128.390625 -208.457031 121.578125 -209.40625 C 114.773438 -210.363281 107.613281 -211.113281 100.09375 -211.65625 C 90.289062 -212.363281 80.832031 -212.242188 71.71875 -211.296875 C 62.613281 -210.347656 56.273438 -207.363281 52.703125 -202.34375 C 51.679688 -200.8125 50.941406 -199.257812 50.484375 -197.6875 C 50.023438 -196.125 49.5 -194.445312 48.90625 -192.65625 Z M 155.578125 -204.203125 C 154.660156 -204.265625 153.851562 -203.460938 153.15625 -201.796875 C 152.46875 -200.128906 152.804688 -199.25 154.171875 -199.15625 C 155.085938 -199.09375 155.898438 -199.265625 156.609375 -199.671875 C 157.628906 -200.984375 157.816406 -202.003906 157.171875 -202.734375 C 156.566406 -203.679688 156.035156 -204.171875 155.578125 -204.203125 Z M 143.8125 -12.328125 C 143.164062 -12.816406 142.382812 -13.097656 141.46875 -13.171875 C 140.101562 -13.265625 139.640625 -12.4375 140.078125 -10.6875 C 140.523438 -8.9375 141.207031 -8.03125 142.125 -7.96875 C 142.570312 -7.9375 143.175781 -8.351562 143.9375 -9.21875 C 144.664062 -9.851562 144.625 -10.890625 143.8125 -12.328125 Z M 143.8125 -12.328125 "/></g></g></g><g fill="#055c9d" fill-opacity="1"><g transform="translate(1145.381412, 846.950989)"><g><path d="M 256.125 -112.796875 C 254.820312 -102.367188 252.519531 -93.15625 249.21875 -85.15625 C 245.925781 -77.164062 241.859375 -70.363281 237.015625 -64.75 L 227.40625 -81.828125 L 221.453125 -78.421875 L 236.359375 -51.015625 C 238.335938 -46.628906 240.109375 -41.457031 241.671875 -35.5 C 243.234375 -29.550781 243.617188 -23.40625 242.828125 -17.0625 C 241.984375 -10.257812 239.015625 -3.550781 233.921875 3.0625 C 228.835938 9.675781 220.234375 15.457031 208.109375 20.40625 C 201.796875 23.0625 195.992188 24.804688 190.703125 25.640625 C 185.410156 26.484375 180.613281 26.640625 176.3125 26.109375 C 168.832031 25.171875 162.59375 22.601562 157.59375 18.40625 C 152.59375 14.21875 148.585938 9.40625 145.578125 3.96875 C 142.566406 -1.46875 140.070312 -6.375 138.09375 -10.75 L 117.15625 -70.015625 L 108.828125 -66.90625 L 119.625 -37.25 L 119.421875 -35.53125 C 118.796875 -30.550781 117.707031 -25.046875 116.15625 -19.015625 C 114.601562 -12.992188 111.828125 -7.359375 107.828125 -2.109375 C 103.835938 3.140625 98.046875 7.132812 90.453125 9.875 C 82.859375 12.613281 72.828125 13.207031 60.359375 11.65625 C 48.117188 10.132812 38.707031 7.117188 32.125 2.609375 C 25.550781 -1.890625 20.972656 -7.175781 18.390625 -13.25 C 15.816406 -19.320312 14.507812 -25.46875 14.46875 -31.6875 C 14.4375 -37.914062 14.734375 -43.519531 15.359375 -48.5 L 26.921875 -141.34375 C 29.347656 -160.84375 34.332031 -176.335938 41.875 -187.828125 C 49.414062 -199.316406 59.03125 -207.671875 70.71875 -212.890625 C 82.414062 -218.109375 95.617188 -221.066406 110.328125 -221.765625 C 125.035156 -222.472656 140.78125 -221.78125 157.5625 -219.6875 C 192.476562 -215.332031 218.644531 -204.53125 236.0625 -187.28125 C 253.476562 -170.039062 260.164062 -145.210938 256.125 -112.796875 Z M 86.078125 -197.5 C 85.054688 -196.707031 84.707031 -195.773438 85.03125 -194.703125 C 85.363281 -193.628906 85.984375 -193.039062 86.890625 -192.9375 C 87.566406 -192.851562 88.144531 -192.894531 88.625 -193.0625 C 96.207031 -196.707031 105.976562 -198.9375 117.9375 -199.75 C 129.90625 -200.570312 142.015625 -200.21875 154.265625 -198.6875 C 162.867188 -197.613281 171.070312 -196.070312 178.875 -194.0625 C 186.6875 -192.0625 193.265625 -189.457031 198.609375 -186.25 C 199.046875 -185.96875 199.609375 -185.785156 200.296875 -185.703125 C 201.429688 -185.566406 202.222656 -185.925781 202.671875 -186.78125 C 203.117188 -187.644531 203.0625 -188.578125 202.5 -189.578125 C 198.445312 -192.148438 191.722656 -195 182.328125 -198.125 C 172.929688 -201.257812 162.335938 -203.5625 150.546875 -205.03125 C 139.671875 -206.382812 128.539062 -206.671875 117.15625 -205.890625 C 105.78125 -205.117188 95.421875 -202.320312 86.078125 -197.5 Z M 143.640625 -146.84375 C 138.859375 -147.207031 135.800781 -146.203125 134.46875 -143.828125 C 133.132812 -141.460938 132.351562 -139.375 132.125 -137.5625 L 130.90625 -127.703125 C 130.675781 -125.878906 130.960938 -123.59375 131.765625 -120.84375 C 132.578125 -118.101562 135.585938 -116.410156 140.796875 -115.765625 C 145.398438 -115.660156 148.359375 -116.726562 149.671875 -118.96875 C 150.992188 -121.21875 151.769531 -123.253906 152 -125.078125 L 153.21875 -134.9375 C 153.445312 -136.75 153.210938 -139.023438 152.515625 -141.765625 C 151.816406 -144.503906 148.859375 -146.195312 143.640625 -146.84375 Z M 227.609375 -22.40625 C 226.703125 -22.519531 225.851562 -22.164062 225.0625 -21.34375 C 219.625 -12.820312 212.96875 -6.976562 205.09375 -3.8125 C 197.21875 -0.644531 188.203125 0.992188 178.046875 1.109375 L 177.765625 6.265625 C 188.585938 6.234375 198.351562 4.507812 207.0625 1.09375 C 215.78125 -2.3125 223.148438 -8.816406 229.171875 -18.421875 C 229.765625 -19.484375 229.878906 -20.382812 229.515625 -21.125 C 229.148438 -21.863281 228.515625 -22.289062 227.609375 -22.40625 Z M 45.546875 -10.90625 C 53.859375 -7.332031 61.53125 -5.109375 68.5625 -4.234375 C 74.445312 -3.492188 80.226562 -3.75 85.90625 -5 C 91.59375 -6.25 97.203125 -8.722656 102.734375 -12.421875 C 104.003906 -13.410156 104.46875 -14.382812 104.125 -15.34375 C 103.789062 -16.3125 103.050781 -16.867188 101.90625 -17.015625 C 101.238281 -17.097656 100.660156 -17.050781 100.171875 -16.875 C 94.910156 -13.382812 89.675781 -11.097656 84.46875 -10.015625 C 79.269531 -8.929688 74.066406 -8.71875 68.859375 -9.375 C 61.828125 -10.25 54.9375 -12.265625 48.1875 -15.421875 Z M 120.359375 -123.484375 C 118.773438 -123.679688 117.867188 -122.875 117.640625 -121.0625 C 117.597656 -116.925781 118.679688 -113.109375 120.890625 -109.609375 C 123.097656 -106.109375 126.328125 -103.867188 130.578125 -102.890625 C 132.378906 -102.660156 133.378906 -103.335938 133.578125 -104.921875 C 133.773438 -106.515625 133.097656 -107.519531 131.546875 -107.9375 C 127.972656 -108.832031 125.597656 -111.019531 124.421875 -114.5 C 123.242188 -117.988281 122.695312 -120.078125 122.78125 -120.765625 C 122.757812 -122.378906 121.953125 -123.285156 120.359375 -123.484375 Z M 157.796875 -160.609375 C 155.972656 -160.835938 154.96875 -160.210938 154.78125 -158.734375 C 154.601562 -157.253906 155.285156 -156.195312 156.828125 -155.5625 C 160.648438 -154.851562 163.085938 -152.707031 164.140625 -149.125 C 165.191406 -145.539062 165.671875 -143.40625 165.578125 -142.71875 C 165.835938 -141.070312 166.644531 -140.164062 168 -140 C 169.582031 -139.800781 170.488281 -140.609375 170.71875 -142.421875 C 170.78125 -146.554688 169.707031 -150.375 167.5 -153.875 C 165.289062 -157.375 162.054688 -159.617188 157.796875 -160.609375 Z M 207.640625 -186.5 C 206.453125 -186.195312 205.671875 -185.5 205.296875 -184.40625 L 205.125 -183.03125 C 205.15625 -181.414062 205.96875 -180.507812 207.5625 -180.3125 C 208.6875 -180.164062 209.410156 -180.421875 209.734375 -181.078125 C 211.179688 -181.578125 211.875 -182.519531 211.8125 -183.90625 C 211.75 -185.300781 210.804688 -186.113281 208.984375 -186.34375 Z M 168.796875 -2.109375 C 166.742188 -2.359375 165.816406 -1.4375 166.015625 0.65625 C 166.503906 2.320312 167.316406 3.226562 168.453125 3.375 C 170.484375 3.625 171.429688 2.472656 171.296875 -0.078125 L 171 -0.453125 C 170.4375 -1.441406 169.703125 -1.992188 168.796875 -2.109375 Z M 37.046875 -20.25 C 36.796875 -18.207031 37.46875 -17.085938 39.0625 -16.890625 C 40.644531 -16.691406 41.648438 -17.367188 42.078125 -18.921875 L 42.109375 -19.265625 C 42.078125 -20.890625 41.269531 -21.800781 39.6875 -22 C 38.550781 -22.132812 37.671875 -21.550781 37.046875 -20.25 Z M 37.046875 -20.25 "/></g></g></g></svg>